<svg xmlns="http://www.w3.org/2000/svg" viewBox="0 0 497 80" role="img" aria-labelledby="title desc">
  <title id="title">ProtocolLab endorsed logo — by Incursa</title>
  <desc id="desc">The ProtocolLab logo with a restrained by Incursa endorsement.</desc>
  <g transform="translate(12 12) scale(0.875)">
    <path d="M25 6H14L6 14V23 M39 6H50L58 14V23 M58 41V50L50 58H39 M25 58H14L6 50V41" fill="none" stroke="#0F766E" stroke-width="6" stroke-linecap="square" stroke-linejoin="miter"/>
    <path d="M25 13H17L13 17V23 M39 13H47L51 17V23 M51 41V47L47 51H39 M25 51H17L13 47V41" fill="none" stroke="#0F8BA0" stroke-width="2" stroke-linecap="square" stroke-linejoin="miter"/>
    <path d="M2 28H25 M39 28H62 M2 36H25 M39 36H62" fill="none" stroke="#0F172A" stroke-width="6" stroke-linecap="square"/>
    <path d="M32 2V11 M32 25V39 M32 53V62" fill="none" stroke="#0F172A" stroke-width="6" stroke-linecap="square"/>
  </g>
<path d="M82 0V698H396Q444 698 482.5 682.5Q521 667 548.0 638.5Q575 610 589.0 570.0Q603 530 603 482Q603 433 589.0 393.5Q575 354 548.0 325.5Q521 297 482.5 281.5Q444 266 396 266H214V0ZM214 380H384Q422 380 444.0 400.5Q466 421 466 459V505Q466 543 444.0 563.0Q422 583 384 583H214Z" transform="translate(88 57) scale(0.046 -0.046)" fill="#0F172A"/>
<path d="M74 0V522H202V414H207Q212 435 222.5 454.5Q233 474 250.0 489.0Q267 504 290.5 513.0Q314 522 345 522H373V401H333Q268 401 235.0 382.0Q202 363 202 320V0Z" transform="translate(116.726 57) scale(0.046 -0.046)" fill="#0F172A"/>
<path d="M281 -12Q225 -12 180.5 7.0Q136 26 104.5 62.0Q73 98 56.0 148.5Q39 199 39 262Q39 325 56.0 375.0Q73 425 104.5 460.5Q136 496 180.5 515.0Q225 534 281 534Q337 534 382.0 515.0Q427 496 458.5 460.5Q490 425 507.0 375.0Q524 325 524 262Q524 199 507.0 148.5Q490 98 458.5 62.0Q427 26 382.0 7.0Q337 -12 281 -12ZM281 91Q332 91 361.0 122.0Q390 153 390 213V310Q390 369 361.0 400.0Q332 431 281 431Q231 431 202.0 400.0Q173 369 173 310V213Q173 153 202.0 122.0Q231 91 281 91Z" transform="translate(134.274 57) scale(0.046 -0.046)" fill="#0F172A"/>
<path d="M237 0Q171 0 136.5 34.5Q102 69 102 133V420H25V522H65Q94 522 104.5 535.5Q115 549 115 576V665H230V522H337V420H230V102H329V0Z" transform="translate(159.688 57) scale(0.046 -0.046)" fill="#0F172A"/>
<path d="M281 -12Q225 -12 180.5 7.0Q136 26 104.5 62.0Q73 98 56.0 148.5Q39 199 39 262Q39 325 56.0 375.0Q73 425 104.5 460.5Q136 496 180.5 515.0Q225 534 281 534Q337 534 382.0 515.0Q427 496 458.5 460.5Q490 425 507.0 375.0Q524 325 524 262Q524 199 507.0 148.5Q490 98 458.5 62.0Q427 26 382.0 7.0Q337 -12 281 -12ZM281 91Q332 91 361.0 122.0Q390 153 390 213V310Q390 369 361.0 400.0Q332 431 281 431Q231 431 202.0 400.0Q173 369 173 310V213Q173 153 202.0 122.0Q231 91 281 91Z" transform="translate(176.408 57) scale(0.046 -0.046)" fill="#0F172A"/>
<path d="M280 -12Q222 -12 177.0 7.0Q132 26 101.5 62.0Q71 98 55.0 148.5Q39 199 39 262Q39 325 55.0 375.0Q71 425 101.5 460.5Q132 496 177.0 515.0Q222 534 280 534Q359 534 410.5 499.0Q462 464 485 402L380 355Q371 388 346.5 409.5Q322 431 280 431Q226 431 199.5 397.0Q173 363 173 308V213Q173 158 199.5 124.5Q226 91 280 91Q326 91 351.0 114.5Q376 138 390 173L488 126Q462 57 409.0 22.5Q356 -12 280 -12Z" transform="translate(202.006 57) scale(0.046 -0.046)" fill="#0F172A"/>
<path d="M281 -12Q225 -12 180.5 7.0Q136 26 104.5 62.0Q73 98 56.0 148.5Q39 199 39 262Q39 325 56.0 375.0Q73 425 104.5 460.5Q136 496 180.5 515.0Q225 534 281 534Q337 534 382.0 515.0Q427 496 458.5 460.5Q490 425 507.0 375.0Q524 325 524 262Q524 199 507.0 148.5Q490 98 458.5 62.0Q427 26 382.0 7.0Q337 -12 281 -12ZM281 91Q332 91 361.0 122.0Q390 153 390 213V310Q390 369 361.0 400.0Q332 431 281 431Q231 431 202.0 400.0Q173 369 173 310V213Q173 153 202.0 122.0Q231 91 281 91Z" transform="translate(225.074 57) scale(0.046 -0.046)" fill="#0F172A"/>
<path d="M202 0Q136 0 105.0 33.0Q74 66 74 126V740H202V102H271V0Z" transform="translate(250.672 57) scale(0.046 -0.046)" fill="#0F172A"/>
<path d="M82 0V698H214V117H489V0Z" transform="translate(263.896 57) scale(0.046 -0.046)" fill="#0F172A"/>
<path d="M458 0Q416 0 391.5 24.5Q367 49 361 90H355Q342 39 302.0 13.5Q262 -12 203 -12Q123 -12 80.0 30.0Q37 72 37 142Q37 223 95.0 262.5Q153 302 260 302H349V340Q349 384 326.0 408.0Q303 432 252 432Q207 432 179.5 412.5Q152 393 133 366L57 434Q86 479 134.0 506.5Q182 534 261 534Q367 534 422.0 486.0Q477 438 477 348V102H529V0ZM246 81Q289 81 319.0 100.0Q349 119 349 156V225H267Q167 225 167 161V144Q167 112 187.5 96.5Q208 81 246 81Z" transform="translate(287.7 57) scale(0.046 -0.046)" fill="#0F172A"/>
<path d="M74 740H202V436H206Q220 481 259.0 507.5Q298 534 350 534Q450 534 502.5 463.5Q555 393 555 262Q555 130 502.5 59.0Q450 -12 350 -12Q298 -12 259.5 15.0Q221 42 206 87H202V0H74ZM309 94Q359 94 390.0 127.0Q421 160 421 216V306Q421 362 390.0 395.5Q359 429 309 429Q263 429 232.5 406.0Q202 383 202 345V179Q202 138 232.5 116.0Q263 94 309 94Z" transform="translate(313.114 57) scale(0.046 -0.046)" fill="#0F172A"/>
  <path d="M357.714 24V64" stroke="#2B2E69" stroke-width="1.5" opacity=".35"/>
<path d="M85 740H165V432H169Q189 481 227.5 504.5Q266 528 320 528Q368 528 407.0 509.0Q446 490 473.5 455.0Q501 420 515.5 370.0Q530 320 530 258Q530 196 515.5 146.0Q501 96 473.5 61.0Q446 26 407.0 7.0Q368 -12 320 -12Q215 -12 169 84H165V0H85ZM298 60Q366 60 405.0 102.5Q444 145 444 214V302Q444 371 405.0 413.5Q366 456 298 456Q271 456 246.5 448.5Q222 441 204.0 428.0Q186 415 175.5 396.5Q165 378 165 357V165Q165 140 175.5 120.5Q186 101 204.0 87.5Q222 74 246.5 67.0Q271 60 298 60Z" transform="translate(374.714 56) scale(0.022 -0.022)" fill="#2B2E69"/>
<path d="M403 516H482L251 -120Q242 -143 233.0 -158.5Q224 -174 211.0 -183.0Q198 -192 178.5 -196.0Q159 -200 131 -200H90V-130H171L210 -20L17 516H97L221 165L245 81H250L278 165Z" transform="translate(387.364 56) scale(0.022 -0.022)" fill="#2B2E69"/>
<path d="M60 0V70H158V628H60V698H340V628H242V70H340V0Z" transform="translate(403.534 56) scale(0.022 -0.022)" fill="#2B2E69"/>
<path d="M85 0V516H165V432H169Q188 476 222.5 502.0Q257 528 315 528Q395 528 441.5 476.5Q488 425 488 331V0H408V317Q408 456 291 456Q267 456 244.5 450.0Q222 444 204.0 432.0Q186 420 175.5 401.5Q165 383 165 358V0Z" transform="translate(412.334 56) scale(0.022 -0.022)" fill="#2B2E69"/>
<path d="M277 -12Q223 -12 180.0 7.0Q137 26 107.5 61.0Q78 96 62.5 146.0Q47 196 47 258Q47 320 62.5 370.0Q78 420 107.5 455.0Q137 490 180.0 509.0Q223 528 277 528Q354 528 400.5 494.5Q447 461 470 407L403 373Q389 413 357.0 435.0Q325 457 277 457Q241 457 214.0 445.5Q187 434 169.0 413.5Q151 393 142.0 364.5Q133 336 133 302V214Q133 146 169.5 102.5Q206 59 277 59Q374 59 417 149L475 110Q450 54 400.5 21.0Q351 -12 277 -12Z" transform="translate(424.83 56) scale(0.022 -0.022)" fill="#2B2E69"/>
<path d="M403 84H399Q391 66 379.5 48.5Q368 31 351.0 17.5Q334 4 310.0 -4.0Q286 -12 254 -12Q174 -12 127.0 39.5Q80 91 80 185V516H160V199Q160 60 278 60Q302 60 324.5 66.0Q347 72 364.5 84.0Q382 96 392.5 114.5Q403 133 403 159V516H483V0H403Z" transform="translate(435.896 56) scale(0.022 -0.022)" fill="#2B2E69"/>
<path d="M85 0V516H165V421H170Q184 458 220.0 487.0Q256 516 319 516H350V436H303Q238 436 201.5 411.5Q165 387 165 350V0Z" transform="translate(448.392 56) scale(0.022 -0.022)" fill="#2B2E69"/>
<path d="M240 -12Q168 -12 119.5 15.5Q71 43 36 89L93 135Q123 97 160.0 76.5Q197 56 246 56Q297 56 325.5 78.0Q354 100 354 140Q354 170 334.5 191.5Q315 213 264 221L223 227Q187 232 157.0 242.5Q127 253 104.5 270.5Q82 288 69.5 314.0Q57 340 57 376Q57 414 71.0 442.5Q85 471 109.5 490.0Q134 509 168.0 518.5Q202 528 241 528Q304 528 346.5 506.0Q389 484 421 445L368 397Q351 421 318.0 440.5Q285 460 235 460Q185 460 159.5 438.5Q134 417 134 380Q134 342 159.5 325.0Q185 308 233 300L273 294Q359 281 395.0 244.5Q431 208 431 149Q431 74 380.0 31.0Q329 -12 240 -12Z" transform="translate(456.466 56) scale(0.022 -0.022)" fill="#2B2E69"/>
<path d="M460 0Q415 0 395.5 24.0Q376 48 371 84H366Q349 36 310.0 12.0Q271 -12 217 -12Q135 -12 89.5 30.0Q44 72 44 144Q44 217 97.5 256.0Q151 295 264 295H366V346Q366 401 336.0 430.0Q306 459 244 459Q197 459 165.5 438.0Q134 417 113 382L65 427Q86 469 132.0 498.5Q178 528 248 528Q342 528 394.0 482.0Q446 436 446 354V70H505V0ZM230 56Q260 56 285.0 63.0Q310 70 328.0 83.0Q346 96 356.0 113.0Q366 130 366 150V235H260Q191 235 159.5 215.0Q128 195 128 157V136Q128 98 155.5 77.0Q183 56 230 56Z" transform="translate(467.18 56) scale(0.022 -0.022)" fill="#2B2E69"/>
</svg>
